<svg xmlns="http://www.w3.org/2000/svg" width="531.72" height="616" viewBox="0 0 531.72 616"><path d="M765.33,380.86c-21.1-70.64-60.33-127-127.83-160.34C583.59,193.91,526,187.84,466.93,194.47c-101.62,11.42-173.12,63.7-207.79,160.76-32.6,91.26-32.43,184.28-4.69,276.79,18.25,60.87,53.32,110,109.49,142.13C408.11,799.37,456.42,808,527.87,808c50.82.23,115-18.93,166.45-72.64,69-72,67.94-204.42-45.2-257.47-6.59-3.09-8.66-6.81-9.18-13.63-1.53-20.76-6.21-40.86-15.32-59.69-22.9-47.35-62.82-67.43-113.36-68.74-46-1.2-85,14.06-113.82,51.6-3.62,4.72-3.32,7.1,1.56,10.25,10.53,6.81,21,13.73,31,21.29,5.64,4.26,8.48,3.34,13-1.87,23.26-26.9,53.7-30.8,86.36-24.71,31.1,5.82,46.95,26.94,54.47,56.27,2.11,8.26-.32,9.28-7.44,8.17-24.58-3.84-49.31-3.79-74-1.87-25,2-48.59,8.83-70,22.26C385,506.9,371.53,569.34,403.53,615c21.59,30.78,53.35,44.23,89.77,46.58,50,3.24,92.41-11.62,120.85-55.65,12.52-19.37,19.25-41,22.81-63.66,1-6.63,2.31-8.87,9-4.11,32.78,23.23,48.34,62.51,39.67,101.84-10.38,47.11-41.69,76.59-83.46,95.87-40.55,18.71-84,20.74-127.62,16.22-84.12-8.71-142-51.8-168.09-133.28-24.45-76.33-24.44-153.65-2.24-230.4,19.17-66.3,60.22-113.13,128.43-132.08a268.64,268.64,0,0,1,152.51,1.81c46.74,14.21,82.59,42.62,106.64,85.52A244.54,244.54,0,0,1,713.07,394c1.19,4.07,2,6.81,7.32,5.25,13.34-3.88,26.8-7.39,40.26-10.79C765.08,387.38,766.84,385.93,765.33,380.86ZM586.46,519.74c-2.64,18.85-6,37.41-15.69,54.21-9.11,15.74-22.18,26.28-39.9,30.59-21.64,5.27-43.09,5-63.55-4.66-15.64-7.37-26.31-19-27.24-37.31-.95-18.53,8-31.7,23.28-41,16.73-10.2,35.58-12.32,54.6-13.33,4.73-.25,9.48,0,14.23,0,16-.44,31.74,1.71,47.5,4C584.24,512.82,587.27,514,586.46,519.74Z" transform="translate(-234.14 -192)"/></svg>